<svg viewBox="0 0 1024 1176.463" xmlns="http://www.w3.org/2000/svg"><path d="M971.908 560.466c-4.72-25.113-33.59-51.625-92.374-85.096l38.51-286.317c.127-.874.2-1.882.2-2.908v-.012C918.283 95.36 689.827 32.14 484.806 32.14c-204.98 0-433.395 63.222-433.395 153.996.007 1.023.08 2.02.213 3l-.013-.12 93.253 692.88c2.84 80.057 209.38 109.968 339.904 109.968 1.638.01 3.577.016 5.518.016 70.27 0 138.73-7.74 204.575-22.417l-6.233 1.168c24.952-5.628 46.225-12.227 66.775-20.267l-3.114 1.074c47.188-18.675 71.54-42.108 72.5-69.54l37.79-280.64c16.492 4.45 35.55 7.288 55.175 7.87l.368.008c1.698.185 3.667.29 5.66.29 15.567 0 29.63-6.435 39.673-16.792l.014-.014c5.667-6.627 9.115-15.3 9.115-24.776 0-2.61-.26-5.157-.76-7.62l.042.245zM484.768 75.648c227.014 0 386.93 70.34 389.888 109.41l-.56 4.517c-.605 1.575-1.25 2.906-1.99 4.173l.07-.134c-.63 1.368-1.256 2.508-1.95 3.6l.072-.12c-1.174 1.492-2.352 2.822-3.602 4.08l.002-.002c-1.12 1.2-2.04 2.4-3.36 3.6-1.52 1.4-3.478 2.798-5.317 4.198-1.6 1.2-2.958 2.4-4.758 3.64-2.12 1.438-4.64 2.838-7.078 4.277-2 1.2-3.8 2.4-5.998 3.6-2.72 1.438-5.878 2.918-8.877 4.398-2.36 1.12-4.56 2.28-7.08 3.4-3.358 1.518-7.077 2.958-10.716 4.437-2.72 1.08-5.198 2.16-8.118 3.28-3.878 1.438-8.197 2.88-12.396 4.277-3 1.04-5.918 2.12-9.117 3.16-4.438 1.398-9.317 2.758-13.996 4.117-3.4.96-6.598 2-10.117 2.92-4.958 1.36-10.317 2.6-15.555 3.918-3.72.88-7.238 1.84-11.117 2.72-5.558 1.28-11.476 2.44-17.315 3.638-3.92.8-7.638 1.64-11.716 2.4-6.198 1.2-12.796 2.28-19.274 3.358-4 .72-7.918 1.44-12.077 2.08-6.638 1.04-13.676 1.92-20.594 2.88-4.4.56-8.518 1.2-12.996 1.76-7.238.92-14.876 1.64-22.394 2.4-4.4.478-8.717 1-13.276 1.438-7.517.64-15.436 1.16-23.193 1.72-4.88.36-9.6.8-14.556 1.12-8.278.48-16.875.8-25.393 1.12-4.8.2-9.357.478-14.156.64q-41.36 1.202-82.736 0c-4.8-.16-9.357-.44-14.076-.64-8.557-.32-17.195-.64-25.472-1.12-4.878-.32-9.517-.8-14.396-1.08-7.798-.6-15.756-1.12-23.354-1.76-4.4-.4-8.597-.96-12.956-1.4-7.597-.8-15.356-1.52-22.714-2.4l-12.597-1.762c-7.04-.96-14.196-1.84-20.992-2.92-4-.6-7.68-1.32-11.596-1.998-6.68-1.12-13.397-2.2-19.755-3.44-3.84-.718-7.318-1.518-11.037-2.24-6.038-1.28-12.196-2.478-17.995-3.798-3.6-.8-6.918-1.72-10.397-2.56-5.518-1.36-11.076-2.68-16.275-4.08-3.278-.878-6.277-1.838-9.396-2.758q-7.393-2.04-14.716-4.32c-3-.96-5.638-1.96-8.517-2.918-4.398-1.48-8.917-3-12.995-4.52-2.68-1-4.998-2.038-7.517-3.078-3.84-1.52-7.798-3.04-11.277-4.598-2.398-1.08-4.398-2.16-6.637-3.2-3.2-1.56-6.48-3.08-9.318-4.64-2.08-1.118-3.76-2.198-5.678-3.358-2.52-1.52-5.2-3-7.398-4.52-1.72-1.16-3-2.318-4.52-3.438-1.92-1.48-3.92-2.92-5.558-4.4-1.127-1.077-2.174-2.213-3.147-3.41l-.053-.068c-1.304-1.28-2.522-2.638-3.65-4.07l-.07-.09c-.577-.93-1.19-2.058-1.744-3.22l-.095-.22c-.705-1.158-1.365-2.502-1.902-3.906l-.057-.173-.6-4.518C98 145.98 257.875 75.645 484.77 75.645zm296.714 801.65c-.126.875-.198 1.887-.2 2.917 0 3.36-8.278 16.197-44.947 30.712-15.765 6.29-34.983 12.23-54.743 16.745l-2.76.53c-56.67 12.82-121.753 20.167-188.55 20.167-1.94 0-3.876-.007-5.812-.02h.298c-184.428 0-296.395-47.346-296.395-68.14-.002-1.03-.074-2.043-.214-3.034l.012.115-83.656-621.138c5.398 3.12 11.197 6.158 17.275 9.077 1.68.8 3.44 1.52 5.12 2.28 5.36 2.478 10.88 4.877 16.676 7.196l7.158 2.76c6.158 2.32 12.557 4.56 19.115 6.72 1.718.52 3.358 1.16 5.197 1.72 8.278 2.6 16.915 5.078 25.833 7.477l7.04 1.76c6.998 1.76 14.116 3.48 21.354 5.078q16.79 3.71 33.71 6.8l4.84.92c10.076 1.8 20.313 3.398 30.71 4.878 2.84.44 5.76.8 8.64 1.2 8 1.08 15.996 2.12 24.153 3.078l9.6 1.08c9.797 1.04 19.594 2 29.59 2.8l3.232.357c10.996.88 22.073 1.6 33.19 2.24l9.317.48c8.397.4 16.875.72 25.313 1q55.88 1.842 111.768-1.04l9.28-.44c11.117-.64 22.194-1.36 33.19-2.24l3.2-.32c9.997-.8 19.874-1.8 29.67-2.88l9.518-1.04q12.297-1.44 24.353-3.08c2.798-.4 5.637-.76 8.436-1.198 10.437-1.48 20.754-3.12 30.87-4.88l4.436-.8c8.597-1.6 17.075-3.28 25.353-5l8.477-1.88c7.438-1.638 14.716-3.397 21.834-5.197l6.638-1.68c8.997-2.4 17.755-4.878 26.152-7.558 1.6-.48 3.08-1.04 4.6-1.52q9.94-3.214 19.71-6.917c2.32-.84 4.56-1.76 6.8-2.64 5.998-2.398 11.715-4.8 17.194-7.397 1.52-.68 3.16-1.36 4.64-2.08 6.117-2.92 11.996-5.998 17.435-9.116L826.11 545.87c-118.156-40.693-214.744-81.226-308.293-127.01l15.935 7.044c-.09-23.96-19.535-43.348-43.508-43.348-24.03 0-43.508 19.48-43.508 43.508s19.48 43.508 43.508 43.508c7.925-.042 15.33-2.236 21.668-6.026l-.195.108c82.993 41.63 184.96 84.22 289.916 120.39l18.596 5.574zm86.934-319.43l4.8-35.79c21.285 10.942 39.267 25.31 53.938 42.578l.206.25c-3.422.268-7.41.42-11.434.42-16.978 0-33.318-2.728-48.606-7.772l1.095.313z"/></svg>